<?xml version="1.0" encoding="UTF-8" standalone="no"?>
<!DOCTYPE svg  PUBLIC '-//W3C//DTD SVG 1.1//EN'  'http://www.w3.org/Graphics/SVG/1.1/DTD/svg11.dtd'>
<svg version="1.1" xmlns="http://www.w3.org/2000/svg">
<defs>
<font id="LitteraPlainBook" horiz-adv-x="653">
<font-face font-family="Littera Plain Book" underline-thickness="50" panose-1="2 0 5 6 4 0 0 2 0 4" unicode-range="U+0020-0491" font-weight="300" cap-height="650" underline-position="-300" descent="-262" bbox="-23 -238 911 918" units-per-em="1000" ascent="738" x-height="460"/>
<missing-glyph/>
<glyph horiz-adv-x="229" glyph-name="space" unicode=" "/>
<glyph horiz-adv-x="203" glyph-name="exclam" d="M61 650h80l-3 -454h-73zM64 9q-14 15 -14 37t14 37q15 15 37 15t37 -15t15 -37t-15 -37q-15 -14 -37 -14t-37 14z" unicode="!"/>
<glyph horiz-adv-x="287" glyph-name="quotedbl" d="M113 500h-59l-10 202h79zM233 500h-60l-10 202h80z" unicode='&quot;'/>
<glyph horiz-adv-x="694" glyph-name="numbersign" d="M234 412h-154v71h182l64 167h76l-64 -167h147l64 167h76l-64 -167h133v-71h-160l-66 -172h146v-71h-174l-64 -169h-77l65 169h-147l-64 -169h-77l65 169h-141v71h168zM457 412h-146l-66 -172h146z" unicode="#"/>
<glyph horiz-adv-x="538" glyph-name="dollar" d="M484 183q0 -79 -47.5 -128t-128.5 -58v-132h-75v131q-124 12 -181 113l52 48q63 -93 164 -93q66 0 102.5 30t36.5 89q0 45 -31.5 72.5t-104.5 49.5l-47 15q-63 22 -80 33q-42 29 -54 52q-20 38 -20 86q0 68 42 110.5t121 50.5v133h75v-133q48 -3 83.5 -20t70.5 -54 l-48 -59q-36 35 -68.5 50t-75.5 15q-59 0 -92 -25.5t-33 -68.5q0 -47 28 -69q30 -22 105 -44q95 -30 145 -65q61 -43 61 -129z" unicode="$"/>
<glyph horiz-adv-x="821" glyph-name="percent" d="M74 383q-43 46 -43 118t43 118t114 46t114 -46t43 -118t-43 -118t-114 -46t-114 46zM99 501q0 -43 24 -70t65 -27q39 0 64 27.5t25 69.5q0 43 -24 70t-65 27t-65 -27t-24 -70zM523 668l67 -33l-301 -654l-67 32zM519 31q-43 46 -43 118t43 118t114 46t114 -46t43 -118 t-43 -118t-114 -46t-114 46zM544 149q0 -43 24 -70t65 -27q39 0 64 27.5t25 69.5q0 43 -24 70t-65 27t-65 -27t-24 -70z" unicode="%"/>
<glyph horiz-adv-x="580" glyph-name="ampersand" d="M546 34l-50 -49l-73 82q-75 -82 -181 -82q-82 0 -141 44q-57 43 -57 126q0 57 31 99t99 90q-47 56 -67 91q-18 35 -18 74q0 70 46 113t123 43q79 0 124 -37.5t45 -105.5q0 -50 -35.5 -94.5t-111.5 -97.5l133 -150q25 50 34 109h74q-7 -85 -56 -165zM373 119l-152 173 q-38 -26 -53 -39q-48 -42 -48 -98q0 -46 34 -72.5t86 -26.5q80 0 133 63zM351 513q0 41 -25.5 61t-67.5 20q-41 0 -67 -22.5t-26 -65.5q0 -27 14.5 -53.5t53.5 -71.5q64 42 91 71t27 61z" unicode="&amp;"/>
<glyph horiz-adv-x="167" glyph-name="quotesingle" d="M113 500h-59l-10 202h79z" unicode="&apos;"/>
<glyph horiz-adv-x="257" glyph-name="parenleft" d="M60 265q0 247 122 450l65 -36q-110 -191 -110 -414q0 -202 110 -392l-66 -36q-121 202 -121 428z" unicode="("/>
<glyph horiz-adv-x="257" glyph-name="parenright" d="M197 265q0 -226 -121 -428l-66 36q110 191 110 392q0 223 -110 414l65 36q122 -203 122 -450z" unicode=")"/>
<glyph horiz-adv-x="355" glyph-name="asterisk" d="M177 577l51 109l59 -35l-69 -98l120 11v-68l-120 10l69 -98l-59 -35l-51 109l-50 -109l-59 35l68 98l-119 -10v68l119 -11l-68 98l59 35z" unicode="*"/>
<glyph horiz-adv-x="512" glyph-name="plus" d="M219 209h-155v68h155v162h74v-162h155v-68h-155v-162h-74v162z" unicode="+"/>
<glyph horiz-adv-x="208" glyph-name="comma" d="M70 84h87l-68 -198h-52q31 198 33 198z" unicode=","/>
<glyph horiz-adv-x="435" glyph-name="hyphen" d="M385 209h-335v68h335v-68z" unicode="-"/>
<glyph horiz-adv-x="191" glyph-name="period" d="M58 9q-14 15 -14 37t14 37q15 15 37 15t37 -15t15 -37t-15 -37q-15 -14 -37 -14t-37 14z" unicode="."/>
<glyph horiz-adv-x="440" glyph-name="slash" d="M373 695l67 -33l-373 -792l-67 32z" unicode="/"/>
<glyph horiz-adv-x="549" glyph-name="zero" d="M274 665q107 0 164 -84.5t57 -255.5t-57 -255.5t-164 -84.5q-220 0 -220 340t220 340zM133 325q0 -140 35 -204.5t106 -64.5q73 0 107.5 63.5t34.5 205.5t-34.5 205.5t-107.5 63.5q-72 0 -106.5 -64t-34.5 -205z" unicode="0"/>
<glyph horiz-adv-x="273" glyph-name="one" d="M122 527l-89 -77v84l166 136v-670h-77v527z" unicode="1"/>
<glyph horiz-adv-x="474" glyph-name="two" d="M182 71h245v-71h-392q22 28 78 94q37 43 86 103q24 31 71 96q75 110 75 197q0 52 -28 78t-71 26q-92 0 -112 -105l-71 19q30 157 183 157q30 0 58.5 -8t57 -26t45.5 -53t17 -83q0 -155 -242 -424z" unicode="2"/>
<glyph horiz-adv-x="506" glyph-name="three" d="M52 135l73 23q11 -48 44.5 -74.5t81.5 -26.5q52 0 83.5 35t31.5 99q0 56 -27 87t-75 31h-41v72h36q50 0 74 30.5t24 77.5q0 53 -29.5 79.5t-77.5 26.5q-40 0 -72.5 -28.5t-40.5 -82.5l-72 20q11 60 42 97q54 64 144 64q87 0 138.5 -44.5t51.5 -124.5q0 -54 -27 -98 q-26 -44 -72 -51v-6q53 -13 81.5 -53.5t28.5 -98.5q0 -88 -47 -146t-154 -58q-78 0 -131.5 39.5t-67.5 110.5z" unicode="3"/>
<glyph horiz-adv-x="481" glyph-name="four" d="M27 138v63l244 449h110v-444h74v-68h-74v-138h-77v138h-277zM304 568l-195 -362h195v362z" unicode="4"/>
<glyph horiz-adv-x="507" glyph-name="five" d="M101 650h320v-71h-254l-21 -191q14 23 45.5 38t68.5 15q100 0 147 -65q46 -64 46 -164q0 -43 -10 -81t-32 -72t-63 -54t-98 -20q-79 0 -131 39t-67 111l73 23q10 -47 44 -74t81 -27q51 0 84 41.5t33 112.5q0 79 -28.5 117.5t-88.5 38.5q-72 0 -109 -58h-76z" unicode="5"/>
<glyph horiz-adv-x="507" glyph-name="six" d="M452 212q-1 -111 -52.5 -169t-137.5 -58q-111 0 -160 73t-49 222q0 385 211 385q149 0 178 -158l-72 -23q-20 110 -106 110q-131 0 -137 -262q20 40 58.5 61t80.5 21q81 0 133 -55q54 -54 53 -147zM258 56q54 0 87 37.5t33 107.5q0 68 -32.5 105t-87.5 37 q-56 0 -90.5 -37t-34.5 -106q0 -70 34.5 -107t90.5 -37z" unicode="6"/>
<glyph horiz-adv-x="448" glyph-name="seven" d="M322 579h-288v71h390l-227 -650h-81z" unicode="7"/>
<glyph horiz-adv-x="503" glyph-name="eight" d="M429 496q0 -51 -25.5 -91t-69.5 -55v-4q49 -13 82 -57.5t33 -107.5q0 -94 -54 -145t-143 -51t-143.5 51t-54.5 144q0 63 32.5 108t81.5 58v4q-44 15 -69 54t-25 91q0 77 51 124q52 46 127 46q76 0 126 -46q51 -45 51 -123zM252 50q52 0 84.5 34.5t32.5 97.5 q0 59 -32.5 93t-84.5 34q-53 0 -85.5 -34.5t-32.5 -93.5q0 -64 32 -97.5t86 -33.5zM252 380q46 0 72.5 33t26.5 82q0 44 -27.5 74.5t-71.5 30.5t-72 -31t-28 -74q0 -49 26.5 -82t73.5 -33z" unicode="8"/>
<glyph horiz-adv-x="507" glyph-name="nine" d="M55 441q1 111 53 167.5t138 56.5q207 0 207 -295q0 -385 -205 -385q-160 0 -195 152l72 20q26 -101 121 -101q126 0 133 262q-20 -40 -57 -61t-78 -21q-79 0 -135 56q-56 57 -54 149zM248 594q-52 0 -85.5 -38t-33.5 -107q0 -68 32.5 -105t86.5 -37q56 0 90.5 37 t34.5 106q0 67 -35.5 105.5t-89.5 38.5z" unicode="9"/>
<glyph horiz-adv-x="225" glyph-name="colon" d="M75 62q-14 15 -14 37t14 36q15 15 37 15t37 -15q15 -14 15 -36t-15 -37q-15 -14 -37 -14t-37 14zM75 323q-14 15 -14 37t14 37q15 15 37 15t37 -15t15 -37t-15 -37q-15 -14 -37 -14t-37 14z" unicode=":"/>
<glyph horiz-adv-x="203" glyph-name="semicolon" d="M70 323q-15 15 -15 37t15 37t37 15t36 -15q15 -15 15 -37t-15 -37q-14 -14 -36 -14t-37 14zM70 84h87l-68 -198h-52q31 198 33 198z" unicode=";"/>
<glyph horiz-adv-x="421" glyph-name="less" d="M377 37l-48 -52l-302 258l301 256l49 -51l-243 -205z" unicode="&lt;"/>
<glyph horiz-adv-x="503" glyph-name="equal" d="M439 143h-375v68h375v-68zM439 282h-375v68h375v-68z" unicode="="/>
<glyph horiz-adv-x="421" glyph-name="greater" d="M93 499l301 -256l-302 -258l-48 52l243 206l-243 205z" unicode="&gt;"/>
<glyph horiz-adv-x="447" glyph-name="question" d="M258 248v-52h-80v68q0 44 19 72.5t61 56.5q46 30 57 46q14 20 14 50q0 53 -29.5 79.5t-77.5 26.5q-40 0 -73 -28.5t-41 -82.5l-72 20q11 60 42 97q54 64 144 64q86 0 138.5 -45t52.5 -124q0 -80 -83 -139q-34 -24 -38 -28q-34 -27 -34 -81zM183 9q-15 15 -15 37t15 37 t37 15t36 -15q15 -15 15 -37t-15 -37q-14 -14 -36 -14t-37 14z" unicode="?"/>
<glyph horiz-adv-x="799" glyph-name="at" d="M118 215q0 -149 76 -228q77 -80 205 -80q86 0 148 38l39 -57q-82 -49 -187 -49q-161 0 -257 103q-95 104 -95 271q0 166 98 272q97 105 255 105q159 0 255 -103q97 -103 97 -272q0 -97 -34 -158q-35 -62 -104 -62q-71 0 -96 52q-55 -52 -159 -52q-71 0 -110.5 36 t-39.5 95q-5 94 97 129q22 9 63 14q51 7 130 7q4 103 -97 103q-72 0 -124 -52l-42 50q68 68 166 68q88 0 131 -41.5t43 -132.5v-153q0 -56 42 -56q63 0 63 153q0 147 -80 227t-202 80t-202 -80q-79 -79 -79 -227zM499 108v108q-144 0 -180 -29q-18 -14 -24 -26.5t-6 -34.5 q0 -29 21 -48t61 -19q79 0 128 49z" unicode="@"/>
<glyph glyph-name="A" d="M629 0h-82l-65 148h-312l-64 -148h-82l299 670h6zM456 209l-131 302l-129 -302h260z" unicode="A"/>
<glyph horiz-adv-x="608" glyph-name="B" d="M336 0h-262v650h238q108 0 163 -41t55 -118q0 -53 -26.5 -94t-75.5 -53v-5q63 -9 97 -55q36 -46 36 -104q0 -83 -58 -131.5t-167 -48.5zM323 301h-169v-238h175q74 0 112.5 31.5t38.5 89.5q0 56 -40 86.5t-117 30.5zM154 587v-221h149q147 0 147 117q0 104 -145 104h-151 z" unicode="B"/>
<glyph glyph-name="C" d="M129 325q0 -127 63 -198q65 -71 163 -71q124 0 188 106l63 -43q-81 -134 -252 -134q-139 0 -223 90t-84 246q0 157 84 250q84 94 222 94q167 0 250 -131l-63 -45q-65 104 -187 104q-99 0 -162 -71q-62 -71 -62 -197z" unicode="C"/>
<glyph horiz-adv-x="638" glyph-name="D" d="M591 323q0 -152 -78 -237.5t-223 -85.5h-216v650h215q145 0 223.5 -86.5t78.5 -240.5zM154 579v-508h127q115 0 173 65.5t58 188.5q0 122 -59 188t-172 66h-127z" unicode="D"/>
<glyph horiz-adv-x="543" glyph-name="E" d="M496 0h-422v650h412v-70h-332v-213h277v-68h-277v-230h342v-69z" unicode="E"/>
<glyph horiz-adv-x="534" glyph-name="F" d="M154 0h-80v650h416v-70h-336v-214h265v-68h-265v-298z" unicode="F"/>
<glyph horiz-adv-x="676" glyph-name="G" d="M551 260h-219v63h297v-39q0 -140 -71.5 -219.5t-204.5 -79.5q-139 0 -223 90q-83 91 -83 246q0 157 84 250q84 94 222 94q169 0 252 -129l-64 -47q-63 104 -188 104q-99 0 -162 -71q-62 -71 -62 -197q0 -127 62 -198q63 -71 162 -71q96 0 147 53.5t51 150.5z" unicode="G"/>
<glyph horiz-adv-x="656" glyph-name="H" d="M503 299h-349v-299h-80v650h80v-286h349v286h79v-650h-79v299z" unicode="H"/>
<glyph horiz-adv-x="228" glyph-name="I" d="M74 650h80v-650h-80v650z" unicode="I"/>
<glyph horiz-adv-x="381" glyph-name="J" d="M227 650h80v-478q0 -92 -41 -139.5t-116 -47.5q-69 0 -116 41l30 64q44 -32 79 -32q84 0 84 130v462z" unicode="J"/>
<glyph horiz-adv-x="605" glyph-name="K" d="M74 650h80v-309l287 309h100l-300 -311v-7l331 -332h-107l-311 326v-326h-80v650z" unicode="K"/>
<glyph horiz-adv-x="532" glyph-name="L" d="M488 74v-74h-414v650h80v-576h334z" unicode="L"/>
<glyph horiz-adv-x="776" glyph-name="M" d="M390 143h-4l-232 320v-463h-80v670h6l308 -413l309 413h5v-670h-79v463z" unicode="M"/>
<glyph horiz-adv-x="678" glyph-name="N" d="M604 -20h-5l-445 500v-480h-80v670h5l445 -500v480h80v-670z" unicode="N"/>
<glyph horiz-adv-x="707" glyph-name="O" d="M130 77q-83 92 -83 248t83 248t223 92t223 -92q84 -91 84 -248t-84 -248q-83 -92 -223 -92t-223 92zM353 56q102 0 163 73q62 74 62 196q0 123 -61 195.5t-164 72.5q-102 0 -163 -73q-61 -71 -61 -195q0 -123 61 -196t163 -73z" unicode="O"/>
<glyph horiz-adv-x="579" glyph-name="P" d="M285 231h-131v-231h-80v650h211q247 0 247 -206q0 -106 -65 -159.5t-182 -53.5zM154 582v-285h114q94 0 139 34t45 113q0 77 -44.5 107.5t-139.5 30.5h-114z" unicode="P"/>
<glyph horiz-adv-x="701" glyph-name="Q" d="M47 325q0 156 83 248t223 92t223 -92q84 -91 84 -248q0 -140 -68 -229.5t-186 -106.5l168 -124l-98 -22l-155 143q-126 11 -200 101q-74 92 -74 238zM353 56q102 0 163 73q62 74 62 196q0 123 -61 195.5t-164 72.5q-102 0 -163 -73q-61 -71 -61 -195q0 -123 61 -196 t163 -73z" unicode="Q"/>
<glyph horiz-adv-x="609" glyph-name="R" d="M285 228h-131v-228h-80v650h211q119 0 184.5 -51.5t65.5 -156.5q0 -143 -122 -193l155 -249h-94l-139 231q-27 -3 -50 -3zM154 582v-288h114q94 0 140.5 34.5t46.5 113.5q0 77 -46 108.5t-141 31.5h-114z" unicode="R"/>
<glyph horiz-adv-x="588" glyph-name="S" d="M541 175q0 -91 -71 -141q-70 -49 -179 -49q-72 0 -142 26q-68 27 -106 89l53 52q64 -94 195 -94q77 0 122 30.5t45 86.5q0 50 -34.5 76.5t-120.5 47.5l-79 20q-30 10 -64 25q-49 23 -71 57t-26 93q0 78 62 124.5t169 46.5q147 0 223 -76l-50 -59q-73 64 -173 64 q-68 0 -108 -28t-40 -71q0 -51 34 -73q35 -23 122 -45l52 -14q68 -19 94 -35q50 -26 67 -57q26 -40 26 -96z" unicode="S"/>
<glyph horiz-adv-x="602" glyph-name="T" d="M44 650h514v-70h-217v-580h-80v580h-217v70z" unicode="T"/>
<glyph horiz-adv-x="654" glyph-name="U" d="M64 263v387h80v-381q0 -100 46.5 -155t135.5 -55q91 0 137.5 54.5t46.5 155.5v381h80v-387q0 -131 -71 -205q-70 -73 -192 -73t-192 73q-71 74 -71 205z" unicode="U"/>
<glyph glyph-name="V" d="M108 650l220 -507l217 507h84l-298 -670h-6l-301 670h84z" unicode="V"/>
<glyph horiz-adv-x="945" glyph-name="W" d="M475 670l216 -492l135 472h85l-200 -670h-6l-233 518l-235 -518h-6l-197 670h84l136 -472l215 492h6z" unicode="W"/>
<glyph horiz-adv-x="646" glyph-name="X" d="M126 0h-92l243 335l-223 315h97l172 -258l177 258h92l-224 -311l244 -339h-97l-193 277z" unicode="X"/>
<glyph horiz-adv-x="614" glyph-name="Y" d="M496 650h87l-236 -419v-231h-80v231l-236 419h87l189 -347z" unicode="Y"/>
<glyph horiz-adv-x="584" glyph-name="Z" d="M550 650v-5l-386 -573h377v-72h-507v5l386 574h-356v71h486z" unicode="Z"/>
<glyph horiz-adv-x="294" glyph-name="bracketleft" d="M77 703h196v-70h-121v-714h121v-69h-196v853z" unicode="["/>
<glyph horiz-adv-x="440" glyph-name="backslash" d="M440 -98l-67 -32l-373 792l67 33z" unicode="\"/>
<glyph horiz-adv-x="294" glyph-name="bracketright" d="M141 633h-120v70h196v-853h-196v69h120v714z" unicode="]"/>
<glyph horiz-adv-x="472" glyph-name="asciicircum" d="M82 388l-52 48l207 234l205 -232l-51 -50l-154 182z" unicode="^"/>
<glyph horiz-adv-x="569" glyph-name="underscore" d="M502 0h-435v69h435v-69z" unicode="_"/>
<glyph horiz-adv-x="194" glyph-name="grave" d="M125 452l-115 198h90l87 -198h-62z" unicode="`"/>
<glyph horiz-adv-x="500" glyph-name="a" d="M109 357l-37 52q79 66 178 66q176 0 176 -188v-287h-69l-1 57q-62 -72 -166 -72q-69 0 -111 38t-42 99q0 96 84 132q50 24 111 29q56 6 117 6q2 55 -24 88t-77 33q-74 0 -139 -53zM349 118v113q-95 0 -147 -15q-50 -13 -67 -33.5t-17 -57.5q0 -36 24 -56t69 -20 q78 0 138 69z" unicode="a"/>
<glyph horiz-adv-x="578" glyph-name="b" d="M144 88v-88h-70v650h77v-263q23 42 66.5 64.5t98.5 22.5q98 0 156 -67q59 -67 59 -177t-59 -178q-58 -67 -156 -67q-54 0 -100 26.5t-72 76.5zM147 230q2 -79 44 -128.5t110 -49.5q71 0 111 51q41 52 41 127q0 76 -41 126q-40 51 -111 51q-72 0 -113 -48.5t-41 -128.5z " unicode="b"/>
<glyph horiz-adv-x="514" glyph-name="c" d="M124 230q0 -76 43 -126q43 -51 114 -51q92 0 135 64l51 -45q-65 -87 -186 -87q-106 0 -170 67t-64 176q0 110 64 178q65 69 170 69q117 0 182 -87l-51 -45q-45 65 -131 65q-71 0 -115 -51q-42 -51 -42 -127z" unicode="c"/>
<glyph horiz-adv-x="578" glyph-name="d" d="M504 0h-71v88q-25 -50 -71 -76.5t-100 -26.5q-98 0 -156 67q-59 68 -59 178q0 112 58 177q58 67 157 67q55 0 98.5 -22.5t66.5 -64.5v263h77v-650zM431 230q0 80 -41 128.5t-113 48.5q-71 0 -111 -51q-41 -50 -41 -126q0 -75 41 -127q40 -51 111 -51q68 0 110 49.5 t44 128.5z" unicode="d"/>
<glyph horiz-adv-x="532" glyph-name="e" d="M47 229q0 109 63 177q63 69 156 69q106 0 162.5 -64t56.5 -179v-23h-361q3 -70 46 -113.5t111 -43.5q91 0 147 66l47 -44q-68 -89 -196 -89q-110 0 -171 66t-61 178zM268 408q-55 0 -93.5 -38t-47.5 -101h280q-12 139 -139 139z" unicode="e"/>
<glyph horiz-adv-x="348" glyph-name="f" d="M114 0v398h-77v62h77v61q0 56 33.5 91.5t92.5 35.5q49 0 85 -18l-14 -58q-24 10 -62 10q-32 0 -45 -19t-13 -61v-42h101v-62h-101v-398h-77z" unicode="f"/>
<glyph horiz-adv-x="575" glyph-name="g" d="M70 305q0 82 54.5 126t153.5 44q90 0 143 -39q35 35 82 35q35 0 59 -11q-2 -5 -6.5 -18t-8.5 -25t-6 -19q-45 25 -83 1q28 -40 28 -94q0 -82 -54.5 -126.5t-153.5 -44.5q-55 0 -97 15q-23 -1 -36 -15t-13 -31q0 -24 22 -34q21 -10 93 -10h103q75 -1 119.5 -36.5 t44.5 -104.5q0 -68 -58.5 -112t-158.5 -44h-24q-103 0 -155.5 42.5t-52.5 109.5q0 30 14 57t35 40q-50 24 -50 82q0 30 17.5 55.5t44.5 31.5q-56 48 -56 125zM278 416q-134 0 -134 -111t134 -111t134 111t-134 111zM181 -6q-21 -8 -34.5 -31t-11.5 -47q2 -40 37.5 -63 t101.5 -23h20q67 0 106 23t39 67q0 73 -112 73h-136q-1 0 -5 0.5t-5 0.5z" unicode="g"/>
<glyph horiz-adv-x="553" glyph-name="h" d="M151 237v-237h-77v650h77v-281q22 53 64.5 79.5t93.5 26.5q170 0 170 -200v-275h-77v260q0 78 -24 113t-84 35q-62 0 -103 -50q-40 -49 -40 -121z" unicode="h"/>
<glyph horiz-adv-x="225" glyph-name="i" d="M151 0h-77v460h77v-460zM75 581q-14 15 -14 37t14 37q15 15 37 15t37 -15t15 -37t-15 -37q-15 -14 -37 -14t-37 14z" unicode="i"/>
<glyph horiz-adv-x="225" glyph-name="j" d="M74 460h77v-498q0 -150 -119 -150q-36 0 -55 13l13 57q15 -6 33 -6q51 0 51 83v501zM75 581q-14 15 -14 37t14 37q15 15 37 15t37 -15t15 -37t-15 -37q-15 -14 -37 -14t-37 14z" unicode="j"/>
<glyph horiz-adv-x="488" glyph-name="k" d="M74 650h77v-406l199 216h98l-211 -215v-6l228 -239h-102l-212 232v-232h-77v650z" unicode="k"/>
<glyph horiz-adv-x="225" glyph-name="l" d="M74 650h77v-650h-77v650z" unicode="l"/>
<glyph horiz-adv-x="793" glyph-name="m" d="M435 243v-243h-77v260q0 75 -20.5 110.5t-69.5 35.5q-52 0 -84.5 -46t-32.5 -117v-243h-77v460h72v-89q50 104 141 104q108 0 133 -106h5q21 52 59 79t87 27q148 0 148 -200v-275h-77v260q0 75 -20.5 110.5t-69.5 35.5q-52 0 -84.5 -46t-32.5 -117z" unicode="m"/>
<glyph horiz-adv-x="553" glyph-name="n" d="M151 237v-237h-77v460h70v-94q25 55 68.5 82t96.5 27q170 0 170 -200v-275h-77v260q0 78 -24 113t-84 35q-62 0 -103 -50q-40 -49 -40 -121z" unicode="n"/>
<glyph horiz-adv-x="560" glyph-name="o" d="M513 230q0 -111 -64 -178q-63 -67 -169 -67q-104 0 -169 68q-64 67 -64 177t64 177q65 68 169 68t169 -68q64 -67 64 -177zM124 230q0 -75 42 -126q44 -51 114 -51q72 0 114 50q42 51 42 127t-42 127t-114 51q-70 0 -114 -51q-42 -51 -42 -127z" unicode="o"/>
<glyph horiz-adv-x="578" glyph-name="p" d="M74 460h70v-88q26 50 72 76.5t100 26.5q98 0 156 -67q59 -68 59 -178t-59 -178q-58 -66 -156 -66q-55 0 -98.5 22.5t-66.5 64.5v-257h-77v644zM147 230q0 -80 41 -128.5t113 -48.5q70 0 111 50q41 52 41 127t-41 127q-40 51 -111 51q-68 0 -110 -49.5t-44 -128.5z" unicode="p"/>
<glyph horiz-adv-x="578" glyph-name="q" d="M433 372v88h71v-644h-77v257q-23 -42 -66.5 -64.5t-98.5 -22.5q-98 0 -157 66q-58 67 -58 178q0 110 59 178q58 67 156 67q54 0 100 -26.5t71 -76.5zM431 230q-2 79 -44 128.5t-110 49.5q-71 0 -111 -51q-41 -52 -41 -127t41 -127q41 -50 111 -50q72 0 113 48.5t41 128.5 z" unicode="q"/>
<glyph horiz-adv-x="406" glyph-name="r" d="M151 218v-218h-77v460h72v-110q45 124 166 124q36 0 57 -12l-13 -67q-18 7 -44 7q-71 0 -116 -54t-45 -130z" unicode="r"/>
<glyph horiz-adv-x="471" glyph-name="s" d="M405 421l-35 -57q-67 47 -136 47q-44 0 -71 -17t-27 -49q0 -31 30 -46q23 -9 33 -12l19 -5q4 -2 21.5 -5t22.5 -5q58 -13 93 -31q34 -16 50 -41.5t19 -70.5q0 -63 -50 -103.5t-133 -40.5q-61 0 -113 23t-82 65l43 51q65 -74 154 -74q47 0 76.5 20.5t29.5 58.5 q0 39 -36 55q-23 10 -82 25q-67 17 -99 30q-36 17 -52.5 41t-18.5 66q0 64 50 96q51 33 125 33q108 0 169 -54z" unicode="s"/>
<glyph horiz-adv-x="353" glyph-name="t" d="M54 398v62h61v120h77v-120h90v-62h-90v-267q0 -39 6 -59q6 -22 39 -22q16 0 48 7l11 -58q-25 -14 -75 -14q-60 0 -83 31t-23 96v286h-61z" unicode="t"/>
<glyph horiz-adv-x="553" glyph-name="u" d="M402 223v237h77v-460h-71v94q-49 -109 -159 -109q-34 0 -63 9t-55.5 30t-41.5 62t-15 99v275h77v-260q0 -75 26 -111.5t87 -36.5q62 0 100 50t38 121z" unicode="u"/>
<glyph horiz-adv-x="506" glyph-name="v" d="M99 460l155 -329l153 329h82l-232 -473h-6l-234 473h82z" unicode="v"/>
<glyph horiz-adv-x="740" glyph-name="w" d="M373 473l159 -326l106 313h78l-166 -473h-6l-174 345l-174 -345h-6l-166 473h77l107 -313l159 326h6z" unicode="w"/>
<glyph horiz-adv-x="503" glyph-name="x" d="M126 0h-92l174 240l-159 220h92l110 -168l110 168h93l-160 -220l175 -240h-93l-125 187z" unicode="x"/>
<glyph horiz-adv-x="503" glyph-name="y" d="M396 460h80l-250 -644h-85l76 184l-190 460h84l148 -375z" unicode="y"/>
<glyph horiz-adv-x="483" glyph-name="z" d="M27 5l285 389h-255v66h379v-5l-284 -389h274v-66h-399v5z" unicode="z"/>
<glyph horiz-adv-x="286" glyph-name="braceleft" d="M30 247v55q22 0 42.5 23.5t20.5 52.5v183q0 173 163 142v-71q-48 14 -68.5 -5t-20.5 -75v-179q0 -61 -60 -98q60 -37 60 -98v-176q0 -56 20.5 -75t68.5 -5v-71q-163 -31 -163 142v179q0 29 -20.5 52.5t-42.5 23.5z" unicode="{"/>
<glyph horiz-adv-x="223" glyph-name="bar" d="M74 703h75v-853h-75v853z" unicode="|"/>
<glyph horiz-adv-x="286" glyph-name="braceright" d="M256 302v-55q-22 0 -42.5 -23.5t-20.5 -52.5v-179q0 -173 -163 -142v71q48 -14 68.5 5t20.5 75v176q0 61 60 98q-60 37 -60 98v179q0 56 -20.5 75t-68.5 5v71q163 31 163 -142v-183q0 -29 20.5 -52.5t42.5 -23.5z" unicode="}"/>
<glyph horiz-adv-x="596" glyph-name="asciitilde" d="M226 306l155 -52q52 -17 77 -1t23 66l68 -18q-5 -82 -50.5 -112t-128.5 -3l-155 52q-52 17 -77 -0.5t-23 -69.5l-68 18q11 167 179 120z" unicode="~"/>
<glyph horiz-adv-x="617" glyph-name="sterling" d="M138 356h-109v65h95q-1 9 -1 41q5 94 61 149t148 55q118 0 192 -77l-52 -59q-31 35 -63 50t-77 15q-55 0 -89 -37t-38 -95q-3 -17 -1 -42h200v-65h-184q1 -4 8.5 -23.5t9.5 -27.5h166v-68h-158q2 -51 -16 -102q21 6 47 0q17 -5 34 -13q15 -7 44 -24l37 -20 q46 -25 73.5 -8.5t26.5 69.5l68 -18q-6 -86 -52 -118t-127 2l-92 48q-46 25 -74 6.5t-26 -71.5l-68 17q1 29 11 61q2 7 9.5 27t8.5 23q23 69 23 121h-144v68h131q-18 40 -22 51z" unicode="£"/>
<glyph horiz-adv-x="491" glyph-name="currency" d="M130 47l-69 35l56 102q-58 52 -58 147t58 147l-56 100l69 36l53 -101q35 9 62 9q31 0 61 -8l55 100l69 -36l-56 -100q59 -56 59 -147q0 -96 -60 -148l57 -101l-69 -35l-55 100q-61 -17 -122 0zM245 200q52 0 82.5 33t30.5 98q0 66 -32 98q-32 33 -81 33t-81 -33 q-31 -31 -31 -98q0 -64 30.5 -97.5t81.5 -33.5z" unicode="¤"/>
<glyph horiz-adv-x="223" glyph-name="brokenbar" d="M149 232v-382h-75v382h75zM74 703h75v-384h-75v384z" unicode="¦"/>
<glyph horiz-adv-x="449" glyph-name="section" d="M64 80l52 38q32 -66 111 -66q39 0 62.5 16.5t22.5 40t-25 42.5q-16 12 -47 26t-58.5 27t-54.5 31t-43 44.5t-16 60.5q0 60 51 106q-55 36 -55 85q0 66 46 100t109 34q58 0 104 -27.5t62 -68.5l-52 -38q-31 66 -111 66q-39 0 -62.5 -16.5t-22.5 -40t25 -42.5 q16 -12 47 -26t58.5 -27t54.5 -31t43 -44.5t16 -60.5q0 -58 -52 -107q56 -38 56 -84q0 -66 -46 -100t-109 -34q-58 0 -104 27.5t-62 68.5zM309 308q0 22 -19 41q-17 19 -33.5 28.5t-60.5 29.5l-13 6q-43 -33 -43 -72q0 -35 36 -59q30 -19 78 -41l11 -5q44 35 44 72z" unicode="§"/>
<glyph horiz-adv-x="583" glyph-name="copyright" d="M118 57q-71 73 -71 173t71 173q72 72 173 72t173 -72t72 -173t-72 -173t-173 -72t-173 72zM106 230q0 -77 53 -132q53 -54 132 -54t132 54q53 55 53 132q0 76 -53 131q-53 54 -132 54t-132 -54q-53 -55 -53 -131zM292 141q27 0 48 15t31 36l46 -28q-18 -34 -52 -54.5 t-73 -20.5q-57 0 -100 41q-41 43 -41 100q0 58 41 99q42 42 100 42q39 0 73 -21t52 -55l-46 -29q-10 23 -31.5 38t-47.5 15q-38 0 -62.5 -25.5t-24.5 -63.5t24.5 -63.5t62.5 -25.5z" unicode="©"/>
<glyph horiz-adv-x="444" glyph-name="guillemotleft" d="M214 7l-184 235l184 235l55 -42l-153 -193l153 -193zM270 242l130 -159l-54 -43l-161 202l161 192l54 -45z" unicode="«"/>
<glyph horiz-adv-x="435" glyph-name="uni00AD" d="M385 209h-335v68h335v-68z" unicode="­"/>
<glyph horiz-adv-x="569" glyph-name="registered" d="M395 115h-60l-33 75h-60v-75h-52v228h119q32 -1 54 -23.5t22 -53.5q0 -48 -37 -67zM288 305h-46v-78h46q44 0 44 39t-44 39zM111 57q-71 73 -71 173t71 173q72 72 173 72t173 -72t72 -173t-72 -173t-173 -72t-173 72zM99 230q0 -77 53 -132q52 -54 132 -54t132 54 q53 55 53 132q0 76 -53 131q-52 54 -132 54t-132 -54q-53 -55 -53 -131z" unicode="®"/>
<glyph horiz-adv-x="259" glyph-name="degree" d="M49 472q-32 32 -32 80t32 80q32 33 80 33q49 0 80 -33q33 -32 33 -80t-33 -80q-32 -32 -80 -32t-80 32zM87 593q-15 -15 -15 -41t15 -42q16 -15 42 -15t41 15q15 16 15 42t-15 41t-41 15t-42 -15z" unicode="°"/>
<glyph horiz-adv-x="524" glyph-name="plusminus" d="M225 327h-161v71h161v148h74v-148h161v-71h-161v-148h-74v148zM460 72h-396v71h396v-71z" unicode="±"/>
<glyph horiz-adv-x="501" glyph-name="paragraph" d="M212 703h74v-853h-74v483q-75 0 -131 54q-54 55 -54 131t54 130q55 55 131 55zM350 703h77v-853h-77v853z" unicode="¶"/>
<glyph horiz-adv-x="444" glyph-name="guillemotright" d="M174 435l55 42l185 -235l-185 -235l-55 42l154 193zM259 242l-161 -202l-54 43l130 159l-130 147l54 45z" unicode="»"/>
<glyph horiz-adv-x="543" glyph-name="afii10023" d="M496 0h-422v650h412v-70h-332v-213h277v-68h-277v-230h342v-69zM139 748q-14 15 -14 37t14 37q15 15 37 15t37 -15t15 -37t-15 -37q-15 -14 -37 -14t-37 14zM355 748q-14 15 -14 37t14 37q15 15 37 15t37 -15t15 -37t-15 -37q-15 -14 -37 -14t-37 14z" unicode="Ё"/>
<glyph horiz-adv-x="690" glyph-name="afii10051" d="M44 650h411v-67h-167v-214q22 53 64.5 79.5t93.5 26.5q170 0 170 -200v-140q0 -150 -119 -150q-36 0 -55 13l13 57q15 -6 33 -6q51 0 51 83v128q0 78 -24 113t-84 35q-61 0 -101 -48t-42 -117v-243h-77v583h-167v67z" unicode="Ђ"/>
<glyph horiz-adv-x="509" glyph-name="afii10052" d="M287 918h83l-84 -198h-65q65 198 66 198zM74 650h391v-70h-311v-580h-80v650z" unicode="Ѓ"/>
<glyph horiz-adv-x="647" glyph-name="afii10053" d="M350 596q-89 0 -150 -61q-62 -60 -72 -166h318l2 -65h-322q4 -115 67 -184q61 -67 157 -67q122 0 186 108l64 -41q-82 -135 -250 -135q-139 0 -221 91t-82 249q0 157 82 248q83 92 221 92q167 0 250 -131l-64 -44q-64 106 -186 106z" unicode="Є"/>
<glyph horiz-adv-x="590" glyph-name="afii10054" d="M543 178q0 -92 -72 -143q-73 -50 -179 -50q-72 0 -142 26q-68 27 -106 89l53 52q64 -94 195 -94q77 0 122.5 31.5t45.5 88.5q0 51 -35 75q-33 23 -121 46l-77 21q-32 11 -62 25q-37 17 -54 34q-43 45 -43 115q0 78 61.5 124.5t167.5 46.5q149 0 221 -77l-48 -58 q-73 64 -173 64q-68 0 -107 -27.5t-39 -71.5q0 -51 33 -74q30 -21 119 -44q14 -3 53 -14l48 -15q35 -12 46 -19q54 -30 68 -56q25 -44 25 -95z" unicode="Ѕ"/>
<glyph horiz-adv-x="228" glyph-name="uni0406" d="M74 650h80v-650h-80v650z" unicode="І"/>
<glyph horiz-adv-x="228" glyph-name="afii10056" d="M0 751q-15 15 -15 37t15 37t37 15t36 -15q15 -15 15 -37t-15 -37q-14 -14 -36 -14t-37 14zM154 751q-15 15 -15 37t15 37t37 15t36 -15q15 -15 15 -37t-15 -37q-14 -14 -36 -14t-37 14zM74 650h80v-650h-80v650z" unicode="Ї"/>
<glyph horiz-adv-x="381" glyph-name="afii10057" d="M227 650h80v-478q0 -92 -41 -139.5t-116 -47.5q-69 0 -116 41l30 64q44 -32 79 -32q84 0 84 130v462z" unicode="Ј"/>
<glyph horiz-adv-x="936" glyph-name="afii10058" d="M153 650h385v-231h107q117 0 182 -53.5t65 -159.5q0 -206 -247 -206h-184v583h-234v-156q0 -143 -16 -241q-15 -88 -50.5 -137.5t-99.5 -61.5q-13 -3 -51 0v66q31 -2 43 1q60 5 87 137q8 32 9 76q3 47 3 72q1 18 1 68v243zM628 355h-90v-291h90q96 0 141.5 31.5 t45.5 110.5q0 80 -46.5 114.5t-140.5 34.5z" unicode="Љ"/>
<glyph horiz-adv-x="931" glyph-name="afii10059" d="M457 650h76v-231h107q117 0 182 -53.5t65 -159.5q0 -206 -247 -206h-183v301h-306v-301h-77v650h77v-288h306v288zM623 355h-90v-291h90q96 0 141.5 31.5t45.5 110.5q0 80 -46.5 114.5t-140.5 34.5z" unicode="Њ"/>
<glyph horiz-adv-x="690" glyph-name="afii10060" d="M44 650h411v-67h-167v-214q22 53 64.5 79.5t93.5 26.5q170 0 170 -200v-275h-77v260q0 78 -24 113t-84 35q-61 0 -101 -48t-42 -117v-243h-77v583h-167v67z" unicode="Ћ"/>
<glyph horiz-adv-x="606" glyph-name="afii10061" d="M74 650h80v-309l287 309h100l-300 -311v-7l331 -332h-107l-311 326v-326h-80v650zM319 918h83l-84 -198h-65q65 198 66 198z" unicode="Ќ"/>
<glyph horiz-adv-x="623" glyph-name="afii10062" d="M506 650h82l-305 -650h-88l88 180l-249 470h90l200 -387zM408 860h76q0 -78 -48 -116q-47 -37 -117 -37q-69 0 -116 37q-47 38 -47 116h75q0 -94 89 -94q88 0 88 94z" unicode="Ў"/>
<glyph horiz-adv-x="650" glyph-name="afii10145" d="M154 69h342v581h80v-650h-211v-156h-80v156h-211v650h80v-581z" unicode="Џ"/>
<glyph glyph-name="afii10017" d="M629 0h-82l-65 148h-312l-64 -148h-82l299 670h6zM456 209l-131 302l-129 -302h260z" unicode="А"/>
<glyph horiz-adv-x="595" glyph-name="afii10018" d="M74 650h417v-70h-337v-182h156q238 0 238 -196q0 -102 -63 -152t-175 -50h-236v650zM288 331h-134v-264h134q94 0 137 29t43 106q0 78 -45 104q-44 25 -135 25z" unicode="Б"/>
<glyph horiz-adv-x="608" glyph-name="afii10019" d="M336 0h-262v650h238q108 0 163 -41t55 -118q0 -53 -26.5 -94t-75.5 -53v-5q63 -9 97 -55q36 -46 36 -104q0 -83 -58 -131.5t-167 -48.5zM323 301h-169v-238h175q74 0 112.5 31.5t38.5 89.5q0 56 -40 86.5t-117 30.5zM154 587v-221h149q147 0 147 117q0 104 -145 104h-151 z" unicode="В"/>
<glyph horiz-adv-x="509" glyph-name="afii10020" d="M74 650h391v-70h-311v-580h-80v650z" unicode="Г"/>
<glyph horiz-adv-x="677" glyph-name="afii10021" d="M97 -156h-80v225h20q118 0 118 389v192h429v-581h76v-225h-80v156h-483v-156zM504 580h-272v-93q0 -57 -1 -70l-2 -78q-1 -54 -8 -92q-4 -32 -15 -76q-18 -83 -64 -102h362v511z" unicode="Д"/>
<glyph horiz-adv-x="543" glyph-name="afii10022" d="M496 0h-422v650h412v-70h-332v-213h277v-68h-277v-230h342v-69z" unicode="Е"/>
<glyph horiz-adv-x="896" glyph-name="afii10024" d="M158 650l250 -309v309h80v-309l249 309h99l-262 -311v-7l288 -332h-106l-268 326v-326h-80v326l-269 -326h-105l288 332v7l-263 311h99z" unicode="Ж"/>
<glyph horiz-adv-x="615" glyph-name="afii10025" d="M46 107l52 52q81 -101 198 -101q86 0 136 35.5t50 97.5q0 122 -182 122h-58v67h53q77 0 117.5 28.5t40.5 80.5q0 106 -160 106q-49 0 -97 -24t-78 -68l-53 51q39 59 105 85q69 26 133 26q110 0 172 -44.5t62 -124.5q0 -54 -29.5 -93.5t-86.5 -47.5v-6q147 -25 147 -160 q0 -84 -68 -144t-194 -60q-174 0 -260 122z" unicode="З"/>
<glyph horiz-adv-x="678" glyph-name="afii10026" d="M524 0v488l-445 -508h-5v670h80v-487l445 507h5v-670h-80z" unicode="И"/>
<glyph horiz-adv-x="678" glyph-name="afii10027" d="M425 860h75q0 -78 -48 -116q-47 -37 -117 -37q-69 0 -116 37q-47 38 -47 116h76q0 -94 88 -94q89 0 89 94zM524 0v488l-445 -508h-5v670h80v-487l445 507h5v-670h-80z" unicode="Й"/>
<glyph horiz-adv-x="606" glyph-name="afii10028" d="M74 650h80v-309l287 309h100l-300 -311v-7l331 -332h-107l-311 326v-326h-80v650z" unicode="К"/>
<glyph horiz-adv-x="661" glyph-name="afii10029" d="M507 580h-277v-153q0 -180 -29 -291q-32 -132 -140 -149q-13 -3 -51 0v69q31 -2 43 1q60 5 87 137q8 32 9 76q3 46 3 72q1 18 1 68v240h434v-650h-80v580z" unicode="Л"/>
<glyph horiz-adv-x="776" glyph-name="afii10030" d="M390 143h-4l-232 320v-463h-80v670h6l308 -413l309 413h5v-670h-79v463z" unicode="М"/>
<glyph horiz-adv-x="656" glyph-name="afii10031" d="M503 299h-349v-299h-80v650h80v-286h349v286h79v-650h-79v299z" unicode="Н"/>
<glyph horiz-adv-x="707" glyph-name="afii10032" d="M130 77q-83 92 -83 248t83 248t223 92t223 -92q84 -91 84 -248t-84 -248q-83 -92 -223 -92t-223 92zM353 56q102 0 163 73q62 74 62 196q0 123 -61 195.5t-164 72.5q-102 0 -163 -73q-61 -71 -61 -195q0 -123 61 -196t163 -73z" unicode="О"/>
<glyph horiz-adv-x="658" glyph-name="afii10033" d="M504 580h-350v-580h-80v650h510v-650h-80v580z" unicode="П"/>
<glyph horiz-adv-x="583" glyph-name="afii10034" d="M285 231h-131v-231h-80v650h211q247 0 247 -206q0 -106 -65 -159.5t-182 -53.5zM154 582v-285h114q94 0 139 34t45 113q0 77 -44.5 107.5t-139.5 30.5h-114z" unicode="Р"/>
<glyph glyph-name="afii10035" d="M129 325q0 -127 63 -198q65 -71 163 -71q124 0 188 106l63 -43q-81 -134 -252 -134q-139 0 -223 90t-84 246q0 157 84 250q84 94 222 94q167 0 250 -131l-63 -45q-65 104 -187 104q-99 0 -162 -71q-62 -71 -62 -197z" unicode="С"/>
<glyph horiz-adv-x="599" glyph-name="afii10036" d="M44 650h511v-70h-216v-580h-80v580h-215v70z" unicode="Т"/>
<glyph horiz-adv-x="623" glyph-name="afii10037" d="M506 650h82l-305 -650h-88l88 180l-249 470h90l200 -387z" unicode="У"/>
<glyph horiz-adv-x="754" glyph-name="afii10038" d="M338 581v69h80v-69q141 0 220 -65t79 -191q0 -125 -79 -190t-220 -65v-70h-80v70q-142 0 -221.5 64.5t-79.5 190.5t79.5 191t221.5 65zM338 137v376q-110 0 -165.5 -45t-55.5 -143t55.5 -143t165.5 -45zM418 513v-376q110 0 164.5 45t54.5 143q0 99 -54.5 143.5 t-164.5 44.5z" unicode="Ф"/>
<glyph horiz-adv-x="646" glyph-name="afii10039" d="M126 0h-92l243 335l-223 315h97l172 -258l177 258h92l-224 -311l244 -339h-97l-193 277z" unicode="Х"/>
<glyph horiz-adv-x="671" glyph-name="afii10040" d="M574 0h-500v650h80v-581h344v581h80v-581h76v-225h-80v156z" unicode="Ц"/>
<glyph horiz-adv-x="610" glyph-name="afii10041" d="M55 433l-1 217h80v-191q0 -107 44 -142q40 -27 104 -27q95 0 174 61v299h80v-650h-80v284q-89 -62 -188 -62q-95 0 -154 48q-59 50 -59 163z" unicode="Ч"/>
<glyph horiz-adv-x="892" glyph-name="afii10042" d="M486 69h252v581h80v-650h-744v650h80v-581h252v581h80v-581z" unicode="Ш"/>
<glyph horiz-adv-x="911" glyph-name="afii10043" d="M486 69h252v581h80v-581h76v-225h-80v156h-740v650h80v-581h252v581h80v-581z" unicode="Щ"/>
<glyph horiz-adv-x="652" glyph-name="afii10044" d="M147 578h-130v72h210v-225h132q117 0 183 -55t66 -161q0 -105 -65.5 -157t-183.5 -52h-212v578zM341 358h-114v-291h114q96 0 141.5 31.5t45.5 110.5q0 80 -46.5 114.5t-140.5 34.5z" unicode="Ъ"/>
<glyph horiz-adv-x="794" glyph-name="afii10045" d="M640 650h80v-650h-80v650zM74 650h80v-225h124q117 0 183.5 -55t66.5 -161q0 -105 -66 -157t-184 -52h-204v650zM261 358h-107v-291h107q96 0 141.5 31.5t45.5 110.5q0 80 -46.5 114.5t-140.5 34.5z" unicode="Ы"/>
<glyph horiz-adv-x="579" glyph-name="afii10046" d="M74 650h80v-225h131q117 0 183.5 -55t66.5 -161q0 -105 -66 -157t-184 -52h-211v650zM268 358h-114v-291h114q96 0 141.5 31.5t45.5 110.5q0 80 -46.5 114.5t-140.5 34.5z" unicode="Ь"/>
<glyph glyph-name="afii10047" d="M524 304h-322v65h320q-10 107 -66 165.5t-148 58.5q-130 0 -195 -104l-63 45q40 63 107 97t151 34q140 0 219 -91q79 -89 79 -249q0 -157 -81 -249q-81 -91 -223 -91q-174 0 -255 134l63 43q64 -106 192 -106q99 0 158 65.5t64 182.5z" unicode="Э"/>
<glyph horiz-adv-x="936" glyph-name="afii10048" d="M283 299h-129v-299h-80v650h80v-286h130q10 140 91 220q83 81 210 81q137 0 220 -93q84 -92 84 -247t-84 -248q-83 -92 -220 -92q-131 0 -213 85q-81 84 -89 229zM363 325q0 -124 61 -197q62 -72 161 -72q100 0 161 73t61 196q0 125 -61 196q-60 72 -161 72 q-99 0 -161 -72q-61 -70 -61 -196z" unicode="Ю"/>
<glyph horiz-adv-x="612" glyph-name="afii10049" d="M538 0h-80v228h-135q-23 0 -49 3l-139 -231h-94l155 249q-122 50 -122 193q0 105 65 156.5t184 51.5h215v-650zM341 294h117v288h-117q-95 0 -141 -31.5t-46 -108.5q0 -79 46.5 -113.5t140.5 -34.5z" unicode="Я"/>
<glyph horiz-adv-x="500" glyph-name="afii10065" d="M109 357l-37 52q79 66 178 66q176 0 176 -188v-287h-69l-1 56q-68 -71 -166 -71q-69 0 -111 38t-42 99q0 96 84 132q50 24 111 29q56 6 117 6q2 55 -24 88t-77 33q-74 0 -139 -53zM349 115v116q-95 0 -147 -15q-50 -13 -67 -33.5t-17 -57.5q0 -36 24 -56t69 -20 q73 0 138 66z" unicode="а"/>
<glyph horiz-adv-x="557" glyph-name="afii10066" d="M279 -15q-113 0 -172.5 73.5t-59.5 206.5q0 361 243 388l178 17v-75l-159 -12q-86 -11 -129 -56.5t-61 -140.5h6q24 41 68 63.5t91 22.5q102 0 164 -68t62 -176t-63 -176q-63 -67 -168 -67zM124 228q0 -76 42 -125q42 -50 113 -50t112.5 49t41.5 126q0 76 -41 126 q-41 51 -113 51q-71 0 -113 -51q-42 -50 -42 -126z" unicode="б"/>
<glyph horiz-adv-x="494" glyph-name="afii10067" d="M291 0h-217v460h204q69 0 107.5 -29t38.5 -82q0 -38 -23 -66t-58 -33v-6q46 -2 76.5 -34t30.5 -84q0 -60 -41.5 -93t-117.5 -33zM267 215h-116v-156h132q86 0 86 78q0 36 -27.5 57t-74.5 21zM274 401h-123v-127h112q81 0 81 64q0 63 -70 63z" unicode="в"/>
<glyph horiz-adv-x="406" glyph-name="afii10068" d="M369 395h-218v-395h-77v460h295v-65z" unicode="г"/>
<glyph horiz-adv-x="553" glyph-name="afii10069" d="M13 -137v200h21q27 0 51.5 30t35.5 80q13 55 14 287h325v-396h63v-200h-74v136h-362v-137h-74zM382 64v331h-176q0 -102 -4 -153q-9 -135 -61 -178h241z" unicode="д"/>
<glyph horiz-adv-x="532" glyph-name="afii10070" d="M47 230q0 110 63 177q63 68 156 68q106 0 162.5 -64t56.5 -179v-23h-361q3 -70 46 -113.5t111 -43.5q91 0 147 66l47 -44q-68 -89 -196 -89q-110 0 -171 66t-61 179zM268 408q-55 0 -93.5 -38t-47.5 -101h280q-12 139 -139 139z" unicode="е"/>
<glyph horiz-adv-x="708" glyph-name="afii10072" d="M140 460l175 -216v216h77v-216l175 216h96l-193 -216v-6l204 -238h-102l-180 232v-232h-77v232l-180 -232h-101l204 238v6l-193 216h95z" unicode="ж"/>
<glyph horiz-adv-x="486" glyph-name="afii10073" d="M45 74l43 48q58 -72 150 -72q122 0 122 89q0 38 -31 57t-83 19h-64v59h60q97 0 97 66q0 34 -28.5 53t-78.5 19q-33 0 -70.5 -17.5t-57.5 -44.5l-43 49q61 76 180 76q82 0 130.5 -35t48.5 -94q0 -29 -23 -60q-22 -29 -62 -34v-4q49 -3 78 -35t29 -81q0 -64 -51 -105.5 t-149 -41.5q-132 0 -197 89z" unicode="з"/>
<glyph horiz-adv-x="544" glyph-name="afii10074" d="M151 460v-318l313 338h6v-480h-77v318l-313 -338h-6v480h77z" unicode="и"/>
<glyph horiz-adv-x="544" glyph-name="afii10075" d="M151 460v-318l313 338h6v-480h-77v318l-313 -338h-6v480h77zM344 653h65q0 -71 -35.5 -106t-99.5 -35q-133 0 -133 141h66q0 -84 68 -84q69 0 69 84z" unicode="й"/>
<glyph horiz-adv-x="495" glyph-name="afii10076" d="M74 460h77v-216l199 216h98l-211 -217v-6l227 -237h-101l-212 232v-232h-77v460z" unicode="к"/>
<glyph horiz-adv-x="529" glyph-name="afii10077" d="M377 0v395h-175v-47q0 -49 -1 -66l-4 -64q-4 -77 -25 -134q-41 -111 -152 -94v66q44 -5 65.5 21.5t33.5 87.5q6 33 9 105t3 131v59h324v-460h-78z" unicode="л"/>
<glyph horiz-adv-x="650" glyph-name="afii10078" d="M606 0h-74l-50 297l-158 -314h-5l-157 314l-52 -297h-73l89 480h6l190 -367l189 367h6z" unicode="м"/>
<glyph horiz-adv-x="539" glyph-name="afii10079" d="M388 206h-237v-206h-77v460h77v-190h237v190h77v-460h-77v206z" unicode="н"/>
<glyph horiz-adv-x="560" glyph-name="afii10080" d="M513 230q0 -111 -64 -178q-63 -67 -169 -67q-104 0 -169 68q-64 67 -64 177t64 177q65 68 169 68t169 -68q64 -67 64 -177zM124 230q0 -75 42 -126q44 -51 114 -51q72 0 114 50q42 51 42 127t-42 127t-114 51q-70 0 -114 -51q-42 -51 -42 -127z" unicode="о"/>
<glyph horiz-adv-x="537" glyph-name="afii10081" d="M386 395h-235v-395h-77v460h389v-460h-77v395z" unicode="п"/>
<glyph horiz-adv-x="578" glyph-name="afii10082" d="M74 460h70v-88q26 50 72 76.5t100 26.5q98 0 156 -67q59 -68 59 -178t-59 -178q-58 -66 -156 -66q-55 0 -98.5 22.5t-66.5 64.5v-257h-77v644zM147 230q0 -80 41 -128.5t113 -48.5q70 0 111 50q41 52 41 127t-41 127q-40 51 -111 51q-68 0 -110 -49.5t-44 -128.5z" unicode="р"/>
<glyph horiz-adv-x="514" glyph-name="afii10083" d="M124 230q0 -76 43 -126q43 -51 114 -51q92 0 135 64l51 -45q-65 -87 -186 -87q-106 0 -170 67t-64 177t64 177q65 69 170 69q117 0 182 -87l-50 -44q-45 64 -132 64q-71 0 -115 -51q-42 -51 -42 -127z" unicode="с"/>
<glyph horiz-adv-x="482" glyph-name="afii10084" d="M202 0v395h-158v65h394v-65h-159v-395h-77z" unicode="т"/>
<glyph horiz-adv-x="505" glyph-name="afii10085" d="M398 460h80l-251 -644h-86l77 184l-191 460h85l148 -375z" unicode="у"/>
<glyph horiz-adv-x="833" glyph-name="afii10086" d="M455 -184h-77v254q-43 -85 -132 -85q-87 0 -138 65.5t-51 179.5t51 179.5t138 65.5q86 0 132 -85v260h77v-260q46 85 131 85q87 0 138.5 -65.5t51.5 -179.5q0 -115 -52 -180q-51 -65 -138 -65q-88 0 -131 85v-254zM578 411q-53 0 -88 -48.5t-37 -132.5q0 -86 33 -133.5 t92 -47.5q56 0 88 48t32 133t-32 133t-88 48zM255 49q59 0 92 47.5t33 133.5q-2 84 -37 132.5t-88 48.5q-56 0 -88 -48t-32 -133t32 -133t88 -48z" unicode="ф"/>
<glyph horiz-adv-x="503" glyph-name="afii10087" d="M126 0h-92l174 240l-159 220h92l110 -168l110 168h93l-160 -220l175 -240h-93l-125 187z" unicode="х"/>
<glyph horiz-adv-x="566" glyph-name="afii10088" d="M151 460v-396h233v396h77v-396h75v-200h-74v136h-388v460h77z" unicode="ц"/>
<glyph horiz-adv-x="490" glyph-name="afii10089" d="M339 245v215h77v-460h-77v185q-62 -35 -123 -35q-51 0 -89 15q-80 36 -80 161v134h77v-129q0 -66 24 -92.5t82 -26.5q44 0 109 33z" unicode="ч"/>
<glyph horiz-adv-x="722" glyph-name="afii10090" d="M151 460v-396h171v396h78v-396h171v396h77v-460h-574v460h77z" unicode="ш"/>
<glyph horiz-adv-x="750" glyph-name="afii10091" d="M648 460v-397h75v-199h-74v136h-575v460h77v-397h171v397h78v-397h171v397h77z" unicode="щ"/>
<glyph horiz-adv-x="523" glyph-name="afii10092" d="M298 0h-171v393h-107v67h185v-147h93q188 0 188 -153q0 -79 -49.5 -119.5t-138.5 -40.5zM205 252v-189h100q49 0 76.5 25.5t27.5 71.5q0 45 -27.5 68.5t-76.5 23.5h-100z" unicode="ъ"/>
<glyph horiz-adv-x="651" glyph-name="afii10093" d="M577 0h-78v460h78v-460zM238 0h-164v460h78v-147h86q188 0 188 -153q0 -79 -49.5 -119.5t-138.5 -40.5zM152 252v-189h94q49 0 76.5 25.5t27.5 71.5q0 45 -27.5 68.5t-76.5 23.5h-94z" unicode="ы"/>
<glyph horiz-adv-x="470" glyph-name="afii10094" d="M245 0h-171v460h78v-147h93q188 0 188 -153q0 -79 -49.5 -119.5t-138.5 -40.5zM152 252v-189h101q49 0 76 25.5t27 71.5q0 45 -27 68.5t-76 23.5h-101z" unicode="ь"/>
<glyph horiz-adv-x="514" glyph-name="afii10095" d="M389 208h-221v60h220q-5 64 -45.5 102t-104.5 38q-42 0 -79 -17.5t-58 -46.5l-50 44q66 87 187 87q107 0 168 -64.5t61 -179.5q0 -111 -63 -179q-61 -67 -167 -67q-59 0 -109.5 23t-80.5 64l51 45q43 -64 139 -64q65 0 107 43.5t45 111.5z" unicode="э"/>
<glyph horiz-adv-x="741" glyph-name="afii10096" d="M240 206h-89v-206h-77v460h77v-190h90q12 94 72 149.5t153 55.5q104 0 166 -68t62 -177q0 -110 -62 -178q-61 -67 -166 -67q-98 0 -159 60q-60 61 -67 161zM315 230q0 -77 40 -127q41 -50 111 -50t111 50q40 50 40 127q0 79 -40.5 128.5t-110.5 49.5t-110.5 -49.5 t-40.5 -128.5z" unicode="ю"/>
<glyph horiz-adv-x="503" glyph-name="afii10097" d="M37 0l137 180v4q-45 9 -73 43.5t-28 86.5q0 72 48 109q47 37 116 37h192v-460h-77v173h-99l-124 -173h-92zM154 314q0 -82 99 -82h99v163h-87q-111 0 -111 -81z" unicode="я"/>
<glyph horiz-adv-x="532" glyph-name="afii10071" d="M47 230q0 110 63 177q63 68 156 68q106 0 162.5 -64t56.5 -179v-23h-361q3 -70 46 -113.5t111 -43.5q91 0 147 66l47 -44q-68 -89 -196 -89q-110 0 -171 66t-61 179zM268 408q-55 0 -93.5 -38t-47.5 -101h280q-12 139 -139 139zM112 581q-15 15 -15 37t15 37t37 15 t36 -15q15 -15 15 -37t-15 -37q-14 -14 -36 -14t-37 14zM352 581q-15 15 -15 37t15 37t37 15t36 -15q15 -15 15 -37t-15 -37q-14 -14 -36 -14t-37 14z" unicode="ё"/>
<glyph horiz-adv-x="611" glyph-name="afii10099" d="M54 514v62h78v74h77v-74h104v-62h-104v-145q23 53 65 79.5t93 26.5q170 0 170 -200v-313q0 -150 -119 -150q-36 0 -55 13l13 57q15 -6 33 -6q51 0 51 83v301q0 78 -24 113t-84 35t-101 -48t-42 -117v-243h-77v514h-78z" unicode="ђ"/>
<glyph horiz-adv-x="416" glyph-name="afii10100" d="M379 395h-228v-395h-77v460h305v-65zM236 735h80l-84 -198h-60q63 198 64 198z" unicode="ѓ"/>
<glyph horiz-adv-x="514" glyph-name="afii10101" d="M281 408q-61 0 -102.5 -38.5t-51.5 -101.5h219v-60h-221q6 -68 48.5 -111.5t107.5 -43.5q92 0 135 64l51 -45q-65 -87 -186 -87q-105 0 -170 68q-64 67 -64 177t64 177q65 68 170 68q117 0 182 -87l-50 -44q-45 64 -132 64z" unicode="є"/>
<glyph horiz-adv-x="471" glyph-name="afii10102" d="M405 421l-35 -57q-67 47 -136 47q-44 0 -71 -17t-27 -49q0 -31 30 -46q23 -9 33 -12l19 -5q4 -2 21.5 -5t22.5 -5q58 -13 93 -31q34 -16 50 -41.5t19 -70.5q0 -63 -50 -103.5t-133 -40.5q-61 0 -113 23t-82 65l43 51q65 -74 154 -74q47 0 76.5 20.5t29.5 58.5 q0 39 -36 55q-23 10 -82 25q-67 17 -99 30q-36 17 -52.5 41t-18.5 66q0 64 50 96q51 33 125 33q108 0 169 -54z" unicode="ѕ"/>
<glyph horiz-adv-x="243" glyph-name="afii10103" d="M160 0h-77v460h77v-460zM85 581q-15 15 -15 37t15 37t37 15t36 -15q15 -15 15 -37t-15 -37q-14 -14 -36 -14t-37 14z" unicode="і"/>
<glyph horiz-adv-x="225" glyph-name="afii10104" d="M151 0h-77v460h77v-460zM0 581q-15 15 -15 37t15 37t37 15t36 -15q15 -15 15 -37t-15 -37q-14 -14 -36 -14t-37 14zM151 581q-15 15 -15 37t15 37t37 15t36 -15q15 -15 15 -37t-15 -37q-14 -14 -36 -14t-37 14z" unicode="ї"/>
<glyph horiz-adv-x="234" glyph-name="afii10105" d="M74 460h77v-498q0 -150 -119 -150q-36 0 -55 13l13 57q15 -6 33 -6q51 0 51 83v501zM75 581q-14 15 -14 37t14 37q15 15 37 15t37 -15t15 -37t-15 -37q-15 -14 -37 -14t-37 14z" unicode="ј"/>
<glyph horiz-adv-x="773" glyph-name="afii10106" d="M548 0h-171v395h-175v-47q0 -49 -1 -66l-4 -64q-4 -77 -25 -134q-41 -111 -152 -94v65q40 -4 61 19t34 74q7 23 10 78q3 33 5 100q1 32 1 90q1 28 1 44h323v-145h93q188 0 188 -155q0 -79 -49.5 -119.5t-138.5 -40.5zM455 252v-189h101q49 0 76 25.5t27 71.5 q0 45 -27 68.5t-76 23.5h-101z" unicode="љ"/>
<glyph horiz-adv-x="783" glyph-name="afii10107" d="M558 0h-170v206h-237v-206h-77v460h77v-190h237v190h77v-145h93q188 0 188 -155q0 -79 -49.5 -119.5t-138.5 -40.5zM465 252v-189h101q49 0 76 25.5t27 71.5q0 45 -27 68.5t-76 23.5h-101z" unicode="њ"/>
<glyph horiz-adv-x="611" glyph-name="afii10108" d="M54 514v62h78v74h77v-74h104v-62h-104v-145q23 53 65 79.5t93 26.5q170 0 170 -200v-275h-77v260q0 78 -24 113t-84 35t-101 -48t-42 -117v-243h-77v514h-78z" unicode="ћ"/>
<glyph horiz-adv-x="495" glyph-name="afii10109" d="M74 460h77v-216l199 216h98l-211 -217v-6l227 -237h-101l-212 232v-232h-77v460zM268 735h80l-84 -198h-60q63 198 64 198z" unicode="ќ"/>
<glyph horiz-adv-x="520" glyph-name="afii10110" d="M406 460h80l-249 -644h-84l74 184l-190 460h84l148 -375zM333 653h65q0 -71 -35 -106t-100 -35q-133 0 -133 141h66q0 -84 68 -84q69 0 69 84z" unicode="ў"/>
<glyph horiz-adv-x="537" glyph-name="afii10193" d="M151 64h235v396h77v-460h-157v-136h-74v136h-158v460h77v-396z" unicode="џ"/>
<glyph horiz-adv-x="525" glyph-name="afii10050" d="M407 650v156h74v-226h-327v-580h-80v650h333z" unicode="Ґ"/>
<glyph horiz-adv-x="429" glyph-name="afii10098" d="M324 460v136h68v-201h-241v-395h-77v460h250z" unicode="ґ"/>
</font>
</defs>
</svg>
